<svg id="visual" viewBox="0 0 900 300" width="900" height="300" xmlns="http://www.w3.org/2000/svg" xmlns:xlink="http://www.w3.org/1999/xlink" version="1.1"><rect x="0" y="0" width="900" height="300" fill="#d8bf6e"></rect><path d="M0 171L21.5 176.5C43 182 86 193 128.8 204.3C171.7 215.7 214.3 227.3 257.2 222.2C300 217 343 195 385.8 182.3C428.7 169.7 471.3 166.3 514.2 178C557 189.7 600 216.3 642.8 228C685.7 239.7 728.3 236.3 771.2 228.7C814 221 857 209 878.5 203L900 197L900 0L878.5 0C857 0 814 0 771.2 0C728.3 0 685.7 0 642.8 0C600 0 557 0 514.2 0C471.3 0 428.7 0 385.8 0C343 0 300 0 257.2 0C214.3 0 171.7 0 128.8 0C86 0 43 0 21.5 0L0 0Z" fill="#d8bf6e"></path><path d="M0 115L21.5 123.7C43 132.3 86 149.7 128.8 158.2C171.7 166.7 214.3 166.3 257.2 161C300 155.7 343 145.3 385.8 145.7C428.7 146 471.3 157 514.2 164C557 171 600 174 642.8 175C685.7 176 728.3 175 771.2 167.7C814 160.3 857 146.7 878.5 139.8L900 133L900 0L878.5 0C857 0 814 0 771.2 0C728.3 0 685.7 0 642.8 0C600 0 557 0 514.2 0C471.3 0 428.7 0 385.8 0C343 0 300 0 257.2 0C214.3 0 171.7 0 128.8 0C86 0 43 0 21.5 0L0 0Z" fill="#db9543"></path><path d="M0 68L21.5 70.7C43 73.3 86 78.7 128.8 80C171.7 81.3 214.3 78.7 257.2 80.8C300 83 343 90 385.8 92.7C428.7 95.3 471.3 93.7 514.2 98C557 102.3 600 112.7 642.8 116.8C685.7 121 728.3 119 771.2 114C814 109 857 101 878.5 97L900 93L900 0L878.5 0C857 0 814 0 771.2 0C728.3 0 685.7 0 642.8 0C600 0 557 0 514.2 0C471.3 0 428.7 0 385.8 0C343 0 300 0 257.2 0C214.3 0 171.7 0 128.8 0C86 0 43 0 21.5 0L0 0Z" fill="#dc6330"></path><path d="M0 77L21.5 69.5C43 62 86 47 128.8 46.5C171.7 46 214.3 60 257.2 67C300 74 343 74 385.8 73.7C428.7 73.3 471.3 72.7 514.2 69.3C557 66 600 60 642.8 54.3C685.7 48.7 728.3 43.3 771.2 40.3C814 37.3 857 36.7 878.5 36.3L900 36L900 0L878.5 0C857 0 814 0 771.2 0C728.3 0 685.7 0 642.8 0C600 0 557 0 514.2 0C471.3 0 428.7 0 385.8 0C343 0 300 0 257.2 0C214.3 0 171.7 0 128.8 0C86 0 43 0 21.5 0L0 0Z" fill="#d80d36"></path></svg>